<svg width="56" height="56" viewBox="0 0 56 56" fill="none" xmlns="http://www.w3.org/2000/svg">
<path fill-rule="evenodd" clip-rule="evenodd" d="M16.625 31.5C19.4717 35.9567 23.6133 38.5 28 38.5C32.375 38.5 36.5167 35.9567 39.3633 31.5C40.6 29.5633 40.6 26.425 39.3633 24.5C36.5167 20.0433 32.375 17.5 28 17.5C23.625 17.5 19.4833 20.0433 16.625 24.5C15.3883 26.4367 15.3883 29.575 16.625 31.5ZM18.1067 25.445C20.6267 21.49 24.2317 19.25 28 19.25C31.7683 19.25 35.3733 21.49 37.8933 25.445C38.7683 26.81 38.7683 29.19 37.8933 30.555C35.3733 34.51 31.7683 36.75 28 36.75C24.2317 36.75 20.6267 34.51 18.1067 30.555C17.2317 29.19 17.2317 26.81 18.1067 25.445ZM22.9483 28C22.9483 30.7883 25.2117 33.0517 28 33.0517C30.7883 33.0517 33.0517 30.7883 33.0517 28C33.0517 25.2117 30.7883 22.9483 28 22.9483C25.2117 22.9483 22.9483 25.2117 22.9483 28ZM24.6983 28C24.6983 26.18 26.18 24.6983 28 24.6983C29.82 24.6983 31.3017 26.18 31.3017 28C31.3017 29.82 29.82 31.3017 28 31.3017C26.18 31.3017 24.6983 29.82 24.6983 28Z" fill="#15718E"/>
</svg>
