<svg width="56" height="56" viewBox="0 0 56 56" fill="none" xmlns="http://www.w3.org/2000/svg">
<path fill-rule="evenodd" clip-rule="evenodd" d="M31.5675 25.6692L25.6691 31.5676L25.6667 31.5701L16.9517 40.2851C16.7767 40.4601 16.555 40.5417 16.3333 40.5417C16.1117 40.5417 15.89 40.4601 15.715 40.2851C15.3767 39.9467 15.3767 39.3867 15.715 39.0484L19.6505 35.1129C18.5267 34.1028 17.5131 32.8896 16.6367 31.5C15.4 29.575 15.4 26.4367 16.6367 24.5C19.4833 20.0434 23.625 17.5001 28 17.5001C30.4374 17.5001 32.8432 18.2786 34.9777 19.7857L39.0483 15.7151C39.3867 15.3767 39.9467 15.3767 40.285 15.7151C40.6233 16.0534 40.6233 16.6134 40.285 16.9517L31.57 25.6667C31.5692 25.6676 31.5683 25.6684 31.5675 25.6692ZM30.8988 23.8646C30.053 23.2686 29.0479 22.9484 28 22.9484C25.2117 22.9484 22.9483 25.2117 22.9483 28C22.9483 29.0479 23.2686 30.0531 23.8646 30.8988L20.8886 33.8748C19.8612 32.9517 18.9275 31.8355 18.1067 30.555C17.2317 29.19 17.2317 26.81 18.1067 25.445C20.6267 21.49 24.2317 19.2501 28 19.2501C29.977 19.2501 31.9445 19.8536 33.72 21.0434L30.8988 23.8646ZM28 24.6984C28.5833 24.6984 29.1433 24.85 29.6333 25.13L25.13 29.6334C24.85 29.1434 24.6983 28.5834 24.6983 28C24.6983 26.18 26.18 24.6984 28 24.6984ZM28 38.5001C26.4483 38.5001 24.9317 38.2084 23.4733 37.59C23.03 37.4034 22.82 36.89 23.0067 36.4467C23.1933 36.0034 23.7067 35.7934 24.15 35.98C25.3867 36.505 26.6817 36.7501 27.9883 36.7501C31.7567 36.7501 35.3617 34.51 37.8817 30.555C38.7567 29.19 38.7567 26.81 37.8817 25.445C37.52 24.8734 37.1233 24.325 36.7033 23.8117C36.4 23.4384 36.4583 22.89 36.8317 22.575C37.205 22.2717 37.7533 22.3184 38.0683 22.7034C38.5233 23.2634 38.9667 23.87 39.3633 24.5C40.6 26.425 40.6 29.5634 39.3633 31.5C36.5167 35.9567 32.375 38.5001 28 38.5001ZM27.9417 32.27C28.0233 32.69 28.3967 32.9817 28.805 32.9817C28.8249 32.9817 28.8434 32.9804 28.8615 32.979L28.8615 32.979H28.8616H28.8616C28.8966 32.9765 28.9299 32.974 28.9683 32.9817C30.975 32.6084 32.585 31.01 32.9583 28.9917C33.0517 28.5134 32.7367 28.0584 32.2583 27.965C31.78 27.8834 31.325 28.1867 31.2317 28.665C30.9983 29.9484 29.925 31.0217 28.6417 31.255C28.1633 31.3367 27.8483 31.7917 27.9417 32.27Z" fill="#15718E"/>
</svg>
