<svg width="56" height="56" viewBox="0 0 56 56" fill="none" xmlns="http://www.w3.org/2000/svg">
<g clip-path="url(#clip0_3_28)">
<path fill-rule="evenodd" clip-rule="evenodd" d="M14.7945 32.021C16.5159 37.6709 21.7693 41.7846 27.982 41.7846C35.595 41.7846 41.7667 35.613 41.7667 28C41.7667 20.387 35.595 14.2154 27.982 14.2154C20.6771 14.2154 14.6993 19.8985 14.2272 27.0842C14.2292 27.0876 14.2313 27.0911 14.2333 27.0945C14.2334 27.0931 14.2334 27.0924 14.2334 27.0924L21.6405 30.1452C21.843 30.0082 22.0593 29.8927 22.2858 29.8006C22.8062 29.5865 23.3541 29.4905 23.9003 29.5155L27.2732 24.6155L27.2719 24.5474H27.2676C27.2676 21.6552 29.6166 19.3032 32.5036 19.3032C35.3962 19.3092 37.7396 21.6552 37.7396 24.5474C37.7396 27.4396 35.3919 29.7942 32.5036 29.7942L32.3852 29.792L27.5636 33.2403C27.5775 33.7802 27.4771 34.3169 27.2689 34.8152C26.8787 35.7507 26.1332 36.4931 25.196 36.8794C24.2589 37.2656 23.2067 37.2641 22.2707 36.8752C21.0809 36.3798 20.2711 35.3494 20.0126 34.1742L14.7945 32.021ZM22.6054 36.0679C24.1075 36.6938 25.8358 35.9843 26.4621 34.4766H26.4586C26.761 33.7503 26.7628 32.9461 26.463 32.2168C26.1631 31.4875 25.6031 30.9172 24.8708 30.6143C24.148 30.3141 23.3752 30.3227 22.6954 30.5812L24.4616 31.3113C24.9935 31.5336 25.4155 31.9579 25.6348 32.4911C25.8541 33.0242 25.8528 33.6226 25.6311 34.1548C25.5217 34.4182 25.3614 34.6575 25.1595 34.8589C24.9575 35.0603 24.7179 35.22 24.4542 35.3287C24.1906 35.4375 23.908 35.4933 23.6228 35.4928C23.3376 35.4924 23.0553 35.4357 22.7919 35.3261L21.0874 34.6196C21.3986 35.2723 21.9389 35.7877 22.6054 36.0679ZM30.0422 27.0163C30.696 27.6714 31.5828 28.0406 32.5084 28.0431C33.434 28.0408 34.3211 27.6717 34.9751 27.0166C35.6291 26.3615 35.9968 25.4739 35.9976 24.5483C35.9966 23.6227 35.6288 22.7353 34.9748 22.0805C34.3208 21.4256 33.4339 21.0566 32.5084 21.0543C31.583 21.0568 30.6963 21.4259 30.0425 22.0808C29.3887 22.7356 29.021 23.6229 29.02 24.5483C29.0208 25.4738 29.3884 26.3613 30.0422 27.0163ZM30.6605 22.6878C30.1694 23.1801 29.8939 23.8473 29.8945 24.5427C29.8941 25.238 30.1694 25.905 30.6606 26.3971C31.1518 26.8893 31.8182 27.1663 32.5135 27.1673C33.2091 27.1666 33.8759 26.8898 34.3673 26.3976C34.8588 25.9054 35.1347 25.2382 35.1343 24.5427C35.1343 23.0931 33.9588 21.9171 32.5135 21.9171C31.8181 21.9183 31.1517 22.1955 30.6605 22.6878Z" fill="#15718E"/>
</g>
<defs>
<clipPath id="clip0_3_28">
<rect width="28" height="28" fill="white" transform="translate(14 14)"/>
</clipPath>
</defs>
</svg>
