<svg width="56" height="56" viewBox="0 0 56 56" fill="none" xmlns="http://www.w3.org/2000/svg">
<path d="M38.5 19.1451L39.3283 18.3284C39.548 18.1087 39.6714 17.8107 39.6714 17.5001C39.6714 17.1894 39.548 16.8914 39.3283 16.6717C39.1087 16.452 38.8107 16.3286 38.5 16.3286C38.1893 16.3286 37.8914 16.452 37.6717 16.6717L36.0383 18.3167L32.7367 21.6184L25.375 28.9684C24.1687 28.1725 22.71 27.8528 21.2814 28.0711C19.8528 28.2894 18.5561 29.0302 17.6426 30.15C16.729 31.2698 16.2637 32.6889 16.3367 34.1322C16.4097 35.5755 17.0159 36.9404 18.0378 37.9623C19.0597 38.9842 20.4245 39.5903 21.8678 39.6634C23.3112 39.7364 24.7302 39.271 25.85 38.3575C26.9698 37.444 27.7107 36.1473 27.929 34.7187C28.1473 33.2901 27.8275 31.8313 27.0317 30.6251L33.5533 24.0917L36.0267 26.5767C36.1355 26.6847 36.2644 26.7703 36.4063 26.8284C36.5481 26.8866 36.7 26.9162 36.8533 26.9157C37.0066 26.9152 37.1583 26.8844 37.2997 26.8253C37.4411 26.7661 37.5695 26.6797 37.6775 26.5709C37.7855 26.4621 37.871 26.3331 37.9292 26.1913C37.9874 26.0495 38.017 25.8976 38.0165 25.7443C38.0159 25.591 37.9852 25.4393 37.9261 25.2979C37.8669 25.1564 37.7805 25.0281 37.6717 24.9201L35.1983 22.4467L36.855 20.8017L37.6717 21.6184C37.7797 21.7272 37.9081 21.8136 38.0495 21.8728C38.1909 21.9319 38.3426 21.9627 38.4959 21.9632C38.6492 21.9637 38.8011 21.9341 38.9429 21.8759C39.0847 21.8178 39.2137 21.7322 39.3225 21.6242C39.4313 21.5162 39.5177 21.3878 39.5769 21.2464C39.636 21.105 39.6668 20.9533 39.6673 20.8C39.6679 20.6467 39.6382 20.4948 39.58 20.353C39.5219 20.2112 39.4363 20.0822 39.3283 19.9734L38.5 19.1451ZM22.1667 37.3334C21.4744 37.3334 20.7977 37.1281 20.2222 36.7435C19.6466 36.3589 19.198 35.8123 18.9331 35.1728C18.6682 34.5332 18.5989 33.8295 18.7339 33.1506C18.869 32.4716 19.2023 31.848 19.6918 31.3585C20.1813 30.869 20.8049 30.5357 21.4839 30.4006C22.1628 30.2656 22.8665 30.3349 23.5061 30.5998C24.1456 30.8647 24.6922 31.3133 25.0768 31.8889C25.4614 32.4645 25.6667 33.1412 25.6667 33.8334C25.6667 34.7616 25.2979 35.6519 24.6415 36.3083C23.9852 36.9646 23.0949 37.3334 22.1667 37.3334Z" fill="#15718E"/>
</svg>
