<svg width="56" height="56" viewBox="0 0 56 56" fill="none" xmlns="http://www.w3.org/2000/svg">
<path d="M22.4894 25.0228C22.3987 25.0228 22.3201 24.9614 22.2918 24.8751C22.2124 24.6334 22.1009 24.4174 21.9575 24.2272C21.7854 23.9933 21.5702 23.7966 21.3121 23.6369C21.0601 23.4715 20.7651 23.3489 20.427 23.269C20.0952 23.1835 19.7295 23.1407 19.3299 23.1407C18.4695 23.1407 17.735 23.3317 17.1265 23.7139C16.5242 24.096 16.0632 24.6464 15.7436 25.365C15.4302 26.0837 15.2734 26.9506 15.2734 27.9658C15.2734 28.9924 15.424 29.8707 15.7252 30.6008C16.0264 31.3308 16.475 31.8897 17.0712 32.2776C17.6674 32.6654 18.408 32.8593 19.2931 32.8593C20.0736 32.8593 20.7221 32.7538 21.2383 32.5428C21.7608 32.3317 22.1511 32.0323 22.4092 31.6445C22.6306 31.3119 22.757 30.929 22.7885 30.4958C22.7971 30.378 22.8981 30.2855 23.0157 30.2969L23.6815 30.3612H19.5668C19.4564 30.3612 19.3668 30.2717 19.3668 30.1612V27.1734C19.3668 27.0629 19.4564 26.9734 19.5668 26.9734H27.538C27.6484 26.9734 27.738 27.0629 27.738 27.1734V29.403C27.738 31 27.3723 32.366 26.6409 33.501C25.9156 34.6302 24.9138 35.4971 23.6354 36.1017C22.3631 36.7006 20.9034 37 19.2562 37C17.4185 37 15.8051 36.6378 14.4161 35.9135C13.027 35.1892 11.9422 34.1568 11.1616 32.8165C10.3872 31.4762 10 29.8821 10 28.0342C10 26.5856 10.2366 25.3023 10.7099 24.1844C11.1893 23.0665 11.8531 22.1226 12.7013 21.3527C13.5494 20.577 14.5298 19.9924 15.6422 19.5989C16.7547 19.1996 17.9471 19 19.2193 19C20.3379 19 21.3766 19.1483 22.3354 19.4449C23.3004 19.7357 24.1516 20.1521 24.8892 20.6939C25.6329 21.23 26.2321 21.866 26.687 22.6017C27.1032 23.2751 27.3702 24.0082 27.4879 24.801C27.5054 24.919 27.4123 25.0228 27.2931 25.0228H22.4894Z" fill="#FF8753"/>
<path d="M40.7515 25.0228C40.6607 25.0228 40.5821 24.9614 40.5538 24.8751C40.4744 24.6334 40.363 24.4174 40.2195 24.2272C40.0474 23.9933 39.8323 23.7966 39.5741 23.6369C39.3221 23.4715 39.0271 23.3489 38.6891 23.269C38.3572 23.1835 37.9915 23.1407 37.592 23.1407C36.7315 23.1407 35.997 23.3317 35.3886 23.7139C34.7862 24.096 34.3253 24.6464 34.0057 25.365C33.6922 26.0837 33.5355 26.9506 33.5355 27.9658C33.5355 28.9924 33.6861 29.8707 33.9872 30.6008C34.2884 31.3308 34.7371 31.8897 35.3333 32.2776C35.9294 32.6654 36.6701 32.8593 37.5551 32.8593C38.3357 32.8593 38.9841 32.7538 39.5004 32.5428C40.0228 32.3317 40.4131 32.0323 40.6712 31.6445C40.8926 31.3119 41.019 30.929 41.0506 30.4958C41.0592 30.378 41.1602 30.2855 41.2777 30.2969L41.9435 30.3612H37.8289C37.7184 30.3612 37.6289 30.2717 37.6289 30.1612V27.1734C37.6289 27.0629 37.7184 26.9734 37.8289 26.9734H45.8C45.9105 26.9734 46 27.0629 46 27.1734V29.403C46 31 45.6343 32.366 44.9029 33.501C44.1776 34.6302 43.1758 35.4971 41.8974 36.1017C40.6251 36.7006 39.1654 37 37.5182 37C35.6805 37 34.0671 36.6378 32.6781 35.9135C31.289 35.1892 30.2042 34.1568 29.4237 32.8165C28.6492 31.4762 28.262 29.8821 28.262 28.0342C28.262 26.5856 28.4987 25.3023 28.9719 24.1844C29.4513 23.0665 30.1151 22.1226 30.9633 21.3527C31.8115 20.577 32.7918 19.9924 33.9043 19.5989C35.0167 19.1996 36.2091 19 37.4814 19C38.6 19 39.6387 19.1483 40.5975 19.4449C41.5624 19.7357 42.4137 20.1521 43.1512 20.6939C43.8949 21.23 44.4942 21.866 44.949 22.6017C45.3653 23.2751 45.6322 24.0082 45.7499 24.801C45.7674 24.919 45.6744 25.0228 45.5551 25.0228H40.7515Z" fill="#FF8753"/>
</svg>
