<svg width="26" height="24" viewBox="0 0 26 24" fill="none" xmlns="http://www.w3.org/2000/svg">
<g clip-path="url(#clip0_204_10504)">
<path fill-rule="evenodd" clip-rule="evenodd" d="M25.8 0.800049H0.199951V22.2C0.199951 22.7523 0.647668 23.2 1.19995 23.2H24.8C25.3522 23.2 25.8 22.7523 25.8 22.2001V0.800049ZM9.74995 3.20005C9.33574 3.20005 8.99995 3.53583 8.99995 3.95005V4.85005C8.99995 5.26426 9.33574 5.60005 9.74995 5.60005H16.25C16.6642 5.60005 17 5.26426 17 4.85005V3.95005C17 3.53584 16.6642 3.20005 16.25 3.20005H9.74995Z" fill="#EFEFEF"/>
<mask id="mask0_204_10504" style="mask-type:alpha" maskUnits="userSpaceOnUse" x="0" y="0" width="26" height="24">
<path d="M0.199951 0.800049H25.8V23.2H0.199951V0.800049Z" fill="white"/>
</mask>
<g mask="url(#mask0_204_10504)">
<path d="M23.3789 17.4009H13.0003C10.6807 17.3986 8.7985 19.2771 8.79618 21.5967C8.79548 22.3171 8.9801 23.0257 9.33233 23.6541L4.14307 14.7502C7.92272 9.85836 14.9524 8.95677 19.8443 12.7364C21.4153 13.9503 22.6352 15.5601 23.3789 17.4009Z" fill="#F44336"/>
<path d="M24.1999 21.6C24.1947 27.7834 19.1834 32.7947 13 32.7999C12.5317 32.8016 12.0639 32.7704 11.6 32.7066L16.6399 23.7C17.795 21.6891 17.1065 19.1227 15.0999 17.96C14.4647 17.5922 13.7434 17.399 13.0093 17.4H23.3785C23.9235 18.7331 24.2026 20.1598 24.1999 21.6Z" fill="#FFC107"/>
<path d="M16.6407 23.7006L11.6007 32.7072H11.5914C5.45823 31.9323 1.11452 26.3322 1.88941 20.199C2.14022 18.2139 2.91857 16.3322 4.14347 14.75L9.33274 23.6539L9.36074 23.7006C10.518 25.7109 13.0857 26.4024 15.096 25.2453C15.7382 24.8756 16.2711 24.3427 16.6407 23.7006Z" fill="#4CAF50"/>
<path d="M16.6406 23.7C15.4834 25.7103 12.9156 26.4018 10.9053 25.2447C10.2632 24.875 9.73031 24.3421 9.36067 23.7L9.33267 23.6533C8.19864 21.6299 8.91972 19.0702 10.9432 17.9362C11.5717 17.584 12.2802 17.3993 13.0006 17.4H13.01C13.744 17.399 14.4653 17.5922 15.1006 17.96C17.1072 19.1227 17.7957 21.6891 16.6406 23.7Z" fill="#2196F3"/>
<path d="M12.9838 26.2691C12.1702 26.269 11.3709 26.0546 10.6664 25.6475C9.95599 25.2367 9.36603 24.6464 8.95557 23.9358C7.66693 21.7038 8.43167 18.8498 10.6637 17.5611C11.3739 17.1511 12.1796 16.9355 12.9997 16.9359C15.577 16.9339 17.6679 19.0216 17.6699 21.5989C17.6706 22.4193 17.4549 23.2253 17.0447 23.9358C16.2036 25.3818 14.6565 26.2707 12.9838 26.2691ZM13.008 17.8692C11.6687 17.8621 10.4288 18.5749 9.761 19.7359C8.73009 21.5235 9.3435 23.8084 11.1311 24.8393C12.9187 25.8702 15.2036 25.2568 16.2345 23.4692C17.2654 21.6836 16.6537 19.4004 14.8681 18.3694C14.3027 18.043 13.6617 17.8706 13.009 17.8693H13.008V17.8692Z" fill="#FAFAFA"/>
</g>
</g>
<defs>
<clipPath id="clip0_204_10504">
<rect width="25.6" height="22.4" fill="white" transform="translate(0.199951 0.800049)"/>
</clipPath>
</defs>
</svg>
