<svg width="32" height="32" viewBox="0 0 32 32" fill="none" xmlns="http://www.w3.org/2000/svg">
<circle cx="16" cy="16" r="16" fill="#32363E"/>
<circle cx="16" cy="16" r="16" fill="#FA7383" fill-opacity="0.08"/>
<circle cx="16" cy="16" r="15" stroke="#FA7383" stroke-opacity="0.5" stroke-width="2"/>
<path fill-rule="evenodd" clip-rule="evenodd" d="M16 11.55C16.4971 11.55 16.9 11.9529 16.9 12.45V16.45C16.9 16.947 16.4971 17.35 16 17.35C15.5029 17.35 15.1 16.947 15.1 16.45V12.45C15.1 11.9529 15.5029 11.55 16 11.55ZM15.0502 19.45C15.0502 18.9529 15.4531 18.55 15.9502 18.55H16.0498C16.5469 18.55 16.9498 18.9529 16.9498 19.45V19.55C16.9498 19.7887 16.855 20.0176 16.6861 20.1864C16.5173 20.3552 16.2883 20.45 16.0496 20.45L15.95 20.4499C15.453 20.4498 15.0502 20.0469 15.0502 19.5499V19.45Z" fill="#FA7383"/>
</svg>
