<svg width="32" height="32" viewBox="0 0 32 32" fill="none" xmlns="http://www.w3.org/2000/svg">
<circle cx="16" cy="16" r="16" fill="#6EADFF" fill-opacity="0.1"/>
<circle cx="16" cy="16" r="15" stroke="#6EADFF" stroke-opacity="0.5" stroke-width="2"/>
<path fill-rule="evenodd" clip-rule="evenodd" d="M15.0502 12C15.0502 11.5029 15.4531 11.1 15.9502 11.1H16.0498C16.5468 11.1 16.9498 11.5029 16.9498 12V12.1C16.9498 12.3387 16.8549 12.5677 16.6861 12.7364C16.5173 12.9052 16.2883 13 16.0496 13L15.95 13C15.453 12.9998 15.0502 12.5969 15.0502 12.1V12ZM16 14.1C16.497 14.1 16.9 14.5029 16.9 15V20C16.9 20.497 16.497 20.9 16 20.9C15.5029 20.9 15.1 20.497 15.1 20V15C15.1 14.5029 15.5029 14.1 16 14.1Z" fill="#6EADFF"/>
</svg>
