<svg width="132" height="16" viewBox="0 0 132 16" fill="none" xmlns="http://www.w3.org/2000/svg"><path d="M20.625 12.48c0 .549-.122 1.017-.366 1.404a3.138 3.138 0 0 1-.992.978 4.74 4.74 0 0 1-1.48.596c-.57.132-1.17.198-1.8.198H4.665c-.61 0-1.19-.076-1.74-.229a5.097 5.097 0 0 1-1.45-.642 3.296 3.296 0 0 1-.992-.992 2.412 2.412 0 0 1-.366-1.314V3.468c0-.448.123-.86.366-1.238.245-.376.575-.702.992-.977.418-.275.9-.494 1.45-.657a6.204 6.204 0 0 1 1.77-.244h11.292c1.424 0 2.553.26 3.387.779.793.493 1.21 1.25 1.248 2.268a.15.15 0 0 1-.043.113.149.149 0 0 1-.11.047H5.521a.309.309 0 0 0-.308.308v8.334c0 .17.138.309.308.309h9.73c.169 0 .307-.139.307-.309V8.463a.152.152 0 0 0-.104-.146.152.152 0 0 0-.171.05l-.809 1.035a.597.597 0 0 1-.485.236h-2.093c-1.22 0-2.273-.254-3.158-.763-.99-.57-1.48-1.185-1.48-2.32 0-.085.069-.155.154-.155h12.904c.17 0 .308.139.308.309v5.77Zm22.661 0c0 .549-.122 1.017-.366 1.404a3.138 3.138 0 0 1-.992.978c-.417.265-.91.463-1.48.596-.57.132-1.17.198-1.8.198H27.326c-.61 0-1.19-.076-1.74-.229a5.098 5.098 0 0 1-1.45-.642 3.295 3.295 0 0 1-.991-.992 2.41 2.41 0 0 1-.367-1.314V3.468c0-.448.123-.86.367-1.238a3.37 3.37 0 0 1 .992-.977c.417-.275.9-.494 1.45-.657a6.204 6.204 0 0 1 1.77-.244h11.29c1.425 0 2.554.26 3.388.779.793.493 1.21 1.25 1.248 2.268a.15.15 0 0 1-.043.113.149.149 0 0 1-.11.047H28.183a.309.309 0 0 0-.308.308v8.334c0 .17.138.309.308.309h9.73c.17 0 .307-.139.307-.309V8.463a.152.152 0 0 0-.103-.146.152.152 0 0 0-.172.05l-.809 1.035a.597.597 0 0 1-.485.236h-2.093c-1.22 0-2.273-.254-3.158-.763-.99-.57-1.48-1.185-1.48-2.32 0-.085.069-.155.154-.155h12.904c.17 0 .308.139.308.309v5.77Zm41.386 0c0 1.099-.453 1.908-1.359 2.428-.905.52-2.09.779-3.555.779H68.894c-.61 0-1.206-.067-1.786-.199a5.282 5.282 0 0 1-1.556-.61 3.584 3.584 0 0 1-1.099-.994 2.261 2.261 0 0 1-.407-1.212.149.149 0 0 1 .041-.114.149.149 0 0 1 .113-.048h15.067c.17 0 .308-.139.308-.309V8.458a.153.153 0 0 0-.104-.146.152.152 0 0 0-.172.051l-.812 1.039a.597.597 0 0 1-.485.236H68.68c-.61 0-1.195-.066-1.755-.198a4.721 4.721 0 0 1-1.48-.611 3.34 3.34 0 0 1-1.022-1.008c-.255-.398-.382-.871-.382-1.42V3.864c0-.611.127-1.14.382-1.589a3.206 3.206 0 0 1 1.022-1.1c.427-.285.92-.493 1.48-.626A7.74 7.74 0 0 1 68.71.352H79.82c1.465 0 2.64.25 3.525.748.843.475 1.285 1.242 1.325 2.3a.15.15 0 0 1-.043.112.15.15 0 0 1-.111.047H69.568a.309.309 0 0 0-.308.308v2.225c0 .17.138.308.308.308h10.22c.611 0 1.211.056 1.801.168.59.112 1.109.29 1.556.535.448.244.814.565 1.099.962.285.397.428.85.428 1.36v3.054Zm17.345 3.176c-.629 0-1.155-.051-1.571-.152a6.3 6.3 0 0 1-1.1-.367 4.441 4.441 0 0 1-.838-.49 16.516 16.516 0 0 0-.733-.518L92.1 8.768a.594.594 0 0 0-.423-.168h-.95a.152.152 0 0 0-.145.104.152.152 0 0 0 .05.171l1.053.825c.154.12.236.29.236.485v5.163c0 .17-.138.308-.308.308h-4.48c-.197 0-.308-.155-.308-.346V.66c0-.17.138-.308.308-.308h4.48c.17 0 .308.138.308.308v6.067c0 .064.037.118.096.143.059.024.123.01.168-.035l6.39-6.483h5.281c.063 0 .117.035.142.094a.15.15 0 0 1-.031.167l-6.49 6.696a.309.309 0 0 0 .006.436l7.86 7.646c.046.045.059.11.036.169a.152.152 0 0 1-.143.096h-3.219Zm6.095-.229a5.087 5.087 0 0 1-1.449-.642 3.294 3.294 0 0 1-.992-.992 2.41 2.41 0 0 1-.366-1.314V.66c0-.17.138-.307.308-.307h4.48c.17 0 .308.138.308.308v14.687c0 .085-.03.159-.091.219a.297.297 0 0 1-.219.09c-.679-.005-1.282-.035-1.979-.229Zm22.485.168c-.265 0-.59-.015-.977-.046a7.664 7.664 0 0 1-1.251-.213 7.147 7.147 0 0 1-1.343-.49 4.86 4.86 0 0 1-1.251-.87l-5.463-5.132-1.867-1.73a.594.594 0 0 0-.418-.164h-.952a.153.153 0 0 0-.146.104.153.153 0 0 0 .051.172l1.051.823c.154.121.236.29.236.486v6.752c0 .17-.138.308-.308.308h-4.48a.308.308 0 0 1-.308-.308V.66c0-.17.138-.308.308-.308h.73c.264 0 .6.015 1.007.046.407.03.829.101 1.266.213.438.112.885.275 1.343.489.458.214.88.504 1.267.87l5.432 5.133c.349.35.763.695 1.129 1.039.253.237.488.45.704.638.116.101.248.151.402.152l.965.003a.153.153 0 0 0 .095-.275l-1.045-.819a.599.599 0 0 1-.236-.485V.66c0-.17.138-.308.308-.308h4.48c.186 0 .308.147.308.332v14.603c0 .17-.138.308-.308.308h-.729Z" fill="#fff"/><path d="M52.062 4.209V.659c0-.17.138-.307.308-.307h2.588c.17 0 .308.138.308.308v3.549c0 .17-.138.308-.308.308H52.37a.309.309 0 0 1-.308-.308Zm-5.75 2.206h3.545c.17 0 .308.139.308.309v2.59c0 .17-.138.309-.308.309h-3.545a.309.309 0 0 1-.308-.308V6.724c0-.17.138-.309.308-.309Zm11.159 0h3.545c.17 0 .308.139.308.309v2.59c0 .17-.138.309-.308.309H57.47a.309.309 0 0 1-.308-.308V6.724c0-.17.138-.309.308-.309Zm-5.41 8.963V11.83c0-.17.139-.308.309-.308h2.588c.17 0 .308.138.308.308v3.55c0 .17-.138.308-.308.308H52.37a.309.309 0 0 1-.308-.309Z" fill="#FF8753"/></svg>