<svg width="11" height="10" viewBox="0 0 11 10" fill="none" xmlns="http://www.w3.org/2000/svg">
<path fill-rule="evenodd" clip-rule="evenodd" d="M6.36885 0.854733C6.46551 0.884289 6.54995 0.943055 6.6099 1.02249C6.66984 1.10192 6.70216 1.19787 6.70216 1.29639V3.61114H8.6068C8.6939 3.6111 8.77934 3.63429 8.85382 3.67818C8.92831 3.72208 8.98898 3.78499 9.02924 3.86008C9.06951 3.93518 9.08781 4.01957 9.08217 4.10407C9.07653 4.18857 9.04716 4.26996 8.99725 4.33936L5.66413 8.96886C5.60612 9.04966 5.5231 9.11036 5.42716 9.14212C5.33122 9.17388 5.22736 9.17505 5.13068 9.14546C5.03401 9.11587 4.94957 9.05706 4.88965 8.97759C4.82973 8.89811 4.79745 8.80212 4.79752 8.70358V6.38884H2.89288C2.80578 6.38887 2.72034 6.36568 2.64585 6.32179C2.57137 6.2779 2.51069 6.21498 2.47043 6.13989C2.43017 6.0648 2.41186 5.98041 2.4175 5.8959C2.42314 5.8114 2.45252 5.73002 2.50242 5.66062L5.83555 1.03112C5.89364 0.950465 5.97667 0.889923 6.07258 0.858287C6.16848 0.826651 6.27227 0.825105 6.36885 0.854733Z" fill="#010709"/>
</svg>
