<svg width="138" height="56" viewBox="0 0 138 56" fill="none" xmlns="http://www.w3.org/2000/svg"><path d="M28.46 31.405c-1.92 7.54-9.722 12.129-17.426 10.249C3.333 39.774-1.355 32.136.566 24.596c1.92-7.54 9.722-12.13 17.424-10.25 7.704 1.88 12.391 9.518 10.47 17.059Z" fill="#F7931A"/><path d="M20.853 25.995c.286-1.873-1.17-2.88-3.162-3.552l.646-2.537-1.578-.385-.629 2.47c-.415-.1-.84-.196-1.264-.29l.634-2.487-1.577-.385-.647 2.536c-.343-.076-.68-.152-1.007-.232l.002-.008-2.176-.531-.42 1.65s1.17.262 1.146.278c.639.156.755.57.735.898l-.736 2.89c.044.011.101.027.164.052l-.166-.04-1.032 4.048c-.078.19-.277.475-.723.367.015.022-1.147-.28-1.147-.28l-.783 1.767 2.053.502c.382.093.756.191 1.125.284l-.653 2.566 1.576.385.646-2.54c.43.115.848.22 1.257.32l-.644 2.527 1.578.385.653-2.561c2.69.498 4.713.297 5.564-2.085.686-1.917-.034-3.024-1.45-3.745 1.032-.233 1.808-.896 2.015-2.267Zm-3.605 4.947c-.487 1.918-3.786.881-4.855.621l.866-3.4c1.07.262 4.5.78 3.99 2.78Zm.488-4.975c-.444 1.744-3.19.858-4.08.64l.785-3.083c.89.218 3.759.623 3.295 2.443Z" fill="#fff"/><path d="M42.274 22.44c1.166 0 2.173.205 3.02.607.85.405 1.552.951 2.115 1.639.556.69.97 1.497 1.236 2.422.265.928.398 1.925.398 2.992 0 1.64-.307 3.19-.926 4.65a12.034 12.034 0 0 1-2.53 3.813 11.906 11.906 0 0 1-3.786 2.562c-1.452.63-3.032.944-4.728.944-.219 0-.604-.006-1.15-.017a17.161 17.161 0 0 1-1.87-.158 22.374 22.374 0 0 1-2.24-.43 11.38 11.38 0 0 1-2.239-.784l6.296-25.896 5.64-.855-2.255 9.19a8.886 8.886 0 0 1 1.454-.498 6.588 6.588 0 0 1 1.565-.18Zm-4.73 15.25c.849 0 1.649-.204 2.4-.606a6.288 6.288 0 0 0 1.95-1.62 8.125 8.125 0 0 0 1.291-2.3 7.684 7.684 0 0 0 .474-2.673c0-1.14-.195-2.029-.582-2.671-.388-.64-1.106-.962-2.148-.962-.341 0-.781.064-1.327.178a3.339 3.339 0 0 0-1.476.75l-2.4 9.759c.145.025.273.049.382.071.107.024.225.041.343.053.124.014.267.02.439.02l.653.001Zm17.347 3.884h-5.386l4.549-18.736h5.423L54.89 41.574Zm2.621-21.019a3.39 3.39 0 0 1-2.038-.658c-.61-.436-.912-1.108-.912-2.013 0-.498.104-.965.309-1.406.208-.44.48-.819.82-1.14.34-.32.734-.575 1.182-.767.45-.19.93-.284 1.44-.284.751 0 1.429.22 2.036.658.605.441.91 1.113.91 2.013 0 .5-.104.969-.31 1.409-.206.44-.478.818-.818 1.14-.338.32-.735.574-1.182.765-.45.192-.928.283-1.437.283Zm6.685-2.385 5.642-.856-1.385 5.523h6.042l-1.092 4.345H67.4l-1.6 6.553a7.276 7.276 0 0 0-.254 1.531c-.027.476.035.885.18 1.23s.405.611.783.8c.376.19.913.287 1.619.287a8.8 8.8 0 0 0 1.694-.161 12.201 12.201 0 0 0 1.654-.445l.402 4.062c-.728.262-1.516.486-2.366.675-.85.192-1.857.285-3.021.285-1.673 0-2.97-.244-3.895-.728-.923-.488-1.575-1.154-1.966-1.998-.385-.84-.557-1.81-.51-2.9.05-1.095.22-2.245.51-3.457l3.568-14.746Zm10.061 15.922c0-1.614.267-3.136.8-4.56a11.176 11.176 0 0 1 2.295-3.743c.992-1.065 2.2-1.909 3.623-2.528 1.415-.616 3-.926 4.746-.926 1.094 0 2.07.1 2.93.303.862.205 1.642.47 2.348.801l-1.857 4.134a17.638 17.638 0 0 0-1.51-.516c-.521-.157-1.157-.232-1.91-.232-1.798 0-3.22.606-4.277 1.815-1.054 1.21-1.584 2.839-1.584 4.882 0 1.21.267 2.19.802 2.939.533.75 1.517 1.122 2.947 1.122.705 0 1.386-.072 2.038-.213a10.2 10.2 0 0 0 1.748-.534l.402 4.238a19.8 19.8 0 0 1-2.256.697c-.826.197-1.81.3-2.95.3-1.504 0-2.778-.216-3.82-.64-1.043-.431-1.904-1.003-2.583-1.728a6.48 6.48 0 0 1-1.474-2.55 10.254 10.254 0 0 1-.458-3.061Zm23.928 7.979c-1.286 0-2.402-.192-3.35-.572-.944-.38-1.726-.912-2.345-1.602-.62-.687-1.084-1.502-1.401-2.44-.318-.938-.47-1.976-.47-3.114 0-1.427.233-2.854.707-4.277a12.028 12.028 0 0 1 2.094-3.846 11.126 11.126 0 0 1 3.382-2.8c1.332-.722 2.863-1.085 4.583-1.085 1.262 0 2.373.192 3.333.571.956.38 1.743.916 2.366 1.603a6.937 6.937 0 0 1 1.398 2.44c.317.937.473 1.978.473 3.117 0 1.423-.231 2.85-.689 4.277a12.258 12.258 0 0 1-2.039 3.846c-.897 1.139-2.018 2.07-3.365 2.794-1.346.725-2.906 1.088-4.677 1.088Zm2.692-15.246c-.798 0-1.504.227-2.109.675a5.86 5.86 0 0 0-1.527 1.711 8.342 8.342 0 0 0-.93 2.262 9.554 9.554 0 0 0-.308 2.333c0 1.189.196 2.114.58 2.78.391.664 1.093.997 2.112.997.802 0 1.504-.225 2.112-.678a5.89 5.89 0 0 0 1.527-1.71 8.384 8.384 0 0 0 .931-2.261 9.711 9.711 0 0 0 .307-2.333c0-1.186-.195-2.114-.584-2.78-.388-.663-1.092-.996-2.111-.996Zm13.947 14.749h-5.391l4.549-18.736h5.426l-4.584 18.736Zm2.617-21.019c-.751 0-1.432-.22-2.036-.658-.607-.436-.911-1.108-.911-2.013 0-.498.104-.965.31-1.406.205-.44.479-.819.819-1.14.339-.32.736-.575 1.183-.767.447-.19.926-.284 1.435-.284a3.39 3.39 0 0 1 2.039.658c.606.441.912 1.113.912 2.013 0 .5-.108.969-.312 1.409a3.69 3.69 0 0 1-.816 1.14 4.02 4.02 0 0 1-1.182.765 3.625 3.625 0 0 1-1.441.283Zm5.849 3.135c.409-.117.865-.258 1.362-.411a18.32 18.32 0 0 1 1.677-.424 20.47 20.47 0 0 1 2.073-.323 23.817 23.817 0 0 1 2.6-.126c2.84 0 4.799.81 5.88 2.424 1.08 1.615 1.267 3.825.566 6.626l-2.478 10.116h-5.422l2.402-9.904a20.97 20.97 0 0 0 .346-1.8c.086-.579.081-1.089-.019-1.53a1.829 1.829 0 0 0-.671-1.07c-.356-.273-.893-.41-1.621-.41-.703 0-1.417.074-2.146.217l-3.531 14.497h-5.424l4.406-17.882Z" fill="#E1E1E1"/></svg>