<svg width="131" height="45" viewBox="0 0 131 45" fill="none" xmlns="http://www.w3.org/2000/svg">
<path d="M13.0117 14.4609H18.2523C18.1824 15.9501 17.7731 17.263 17.0245 18.3995C16.2758 19.536 15.2377 20.4226 13.91 21.0595C12.5924 21.6865 11.0352 22 9.23843 22C7.78104 22 6.47838 21.76 5.33044 21.2799C4.19248 20.7998 3.22422 20.1091 2.42565 19.2077C1.63706 18.3064 1.03315 17.214 0.613899 15.9305C0.204633 14.6471 0 13.202 0 11.5952V10.4342C0 8.82743 0.214615 7.38232 0.643845 6.09886C1.08306 4.80561 1.70195 3.70831 2.50051 2.80695C3.30906 1.89579 4.27733 1.20018 5.4053 0.720107C6.53328 0.240036 7.78603 0 9.16356 0C11.0602 0 12.6623 0.333111 13.9699 0.999332C15.2776 1.66555 16.2908 2.58161 17.0095 3.74749C17.7282 4.90358 18.1524 6.22133 18.2822 7.70073H13.0416C13.0216 6.89735 12.8819 6.22623 12.6224 5.68737C12.3628 5.13872 11.9536 4.72723 11.3946 4.45291C10.8356 4.17858 10.0919 4.04142 9.16356 4.04142C8.51473 4.04142 7.95074 4.15898 7.4716 4.39412C6.99246 4.62926 6.59317 5.00156 6.27375 5.51102C5.95432 6.02049 5.71475 6.68181 5.55503 7.49499C5.4053 8.29837 5.33044 9.26831 5.33044 10.4048V11.5952C5.33044 12.7317 5.40031 13.7016 5.54006 14.505C5.67981 15.3084 5.90441 15.9648 6.21385 16.4743C6.5233 16.9837 6.92258 17.3609 7.4117 17.6059C7.91081 17.841 8.51972 17.9586 9.23843 17.9586C10.037 17.9586 10.7108 17.8361 11.2598 17.5912C11.8088 17.3365 12.2331 16.9544 12.5325 16.4449C12.832 15.9256 12.9917 15.2643 13.0117 14.4609Z" fill="#E1E1E1"/>
<path d="M23.6126 0.308617H32.1922C33.8692 0.308617 35.3266 0.553552 36.5644 1.04342C37.8022 1.53329 38.7555 2.25829 39.4243 3.21844C40.1031 4.17858 40.4424 5.36406 40.4424 6.77488C40.4424 7.99955 40.2478 9.02338 39.8585 9.84636C39.4692 10.6693 38.9252 11.3503 38.2264 11.8891C37.5377 12.4182 36.7341 12.8542 35.8157 13.1971L34.0938 14.1523H26.8918L26.8618 10.1697H32.1922C32.861 10.1697 33.4151 10.0521 33.8543 9.81697C34.2935 9.58183 34.6229 9.24872 34.8425 8.81764C35.0721 8.37675 35.1869 7.85259 35.1869 7.24516C35.1869 6.62792 35.0721 6.09886 34.8425 5.65798C34.6129 5.2171 34.2735 4.87909 33.8243 4.64395C33.3851 4.40882 32.8411 4.29125 32.1922 4.29125H28.8682V21.7061H23.6126V0.308617ZM35.5462 21.7061L30.7249 12.2418L36.2949 12.2124L41.1761 21.4856V21.7061H35.5462Z" fill="#E1E1E1"/>
<path d="M49.7258 0.308617L53.7386 9.59653L57.7664 0.308617H63.4262L56.4188 14.02V21.7061H51.0734V14.02L44.051 0.308617H49.7258Z" fill="#E1E1E1"/>
<path d="M76.6026 14.4462H71.1823V10.4636H76.6026C77.3413 10.4636 77.9402 10.3411 78.3994 10.0962C78.8585 9.85126 79.1929 9.51325 79.4026 9.08216C79.6222 8.64128 79.732 8.14652 79.732 7.59786C79.732 7.01002 79.6222 6.46627 79.4026 5.9666C79.1929 5.46693 78.8585 5.06524 78.3994 4.76152C77.9402 4.44801 77.3413 4.29125 76.6026 4.29125H73.1588V21.7061H67.9032V0.308617H76.6026C78.3494 0.308617 79.8518 0.622133 81.1095 1.24916C82.3772 1.8762 83.3505 2.73837 84.0293 3.83567C84.708 4.92318 85.0474 6.16745 85.0474 7.56847C85.0474 8.9499 84.708 10.155 84.0293 11.1837C83.3505 12.2124 82.3772 13.0158 81.1095 13.5939C79.8518 14.1621 78.3494 14.4462 76.6026 14.4462Z" fill="#E1E1E1"/>
<path d="M101.308 0.308617V21.7061H96.0527V0.308617H101.308ZM107.866 0.308617V4.29125H89.6442V0.308617H107.866Z" fill="#E1E1E1"/>
<path d="M131 10.5812V11.4482C131 13.0844 130.765 14.554 130.296 15.857C129.837 17.1503 129.183 18.2574 128.335 19.1784C127.486 20.0895 126.483 20.79 125.325 21.2799C124.167 21.76 122.89 22 121.492 22C120.085 22 118.797 21.76 117.629 21.2799C116.471 20.79 115.463 20.0895 114.604 19.1784C113.756 18.2574 113.097 17.1503 112.628 15.857C112.169 14.554 111.939 13.0844 111.939 11.4482V10.5812C111.939 8.945 112.169 7.4754 112.628 6.17234C113.097 4.86929 113.751 3.76219 114.589 2.85104C115.438 1.93008 116.441 1.22957 117.599 0.749499C118.767 0.25963 120.055 0.0146961 121.462 0.0146961C122.86 0.0146961 124.137 0.25963 125.295 0.749499C126.463 1.22957 127.471 1.93008 128.32 2.85104C129.168 3.76219 129.827 4.86929 130.296 6.17234C130.765 7.4754 131 8.945 131 10.5812ZM125.67 11.4482V10.5518C125.67 9.49365 125.575 8.5629 125.385 7.75952C125.205 6.94634 124.936 6.26542 124.577 5.71677C124.217 5.16811 123.773 4.75662 123.244 4.4823C122.725 4.19817 122.131 4.05611 121.462 4.05611C120.763 4.05611 120.154 4.19817 119.635 4.4823C119.116 4.75662 118.682 5.16811 118.333 5.71677C117.983 6.26542 117.719 6.94634 117.539 7.75952C117.369 8.5629 117.285 9.49365 117.285 10.5518V11.4482C117.285 12.4965 117.369 13.4273 117.539 14.2405C117.719 15.0439 117.983 15.7248 118.333 16.2832C118.692 16.8417 119.131 17.263 119.65 17.5471C120.179 17.8312 120.793 17.9733 121.492 17.9733C122.161 17.9733 122.755 17.8312 123.274 17.5471C123.793 17.263 124.227 16.8417 124.577 16.2832C124.936 15.7248 125.205 15.0439 125.385 14.2405C125.575 13.4273 125.67 12.4965 125.67 11.4482Z" fill="#E1E1E1"/>
<path d="M7.48956 42.6767C7.90696 42.6767 8.27964 42.5948 8.6076 42.431C8.93555 42.2672 9.19643 42.0364 9.39022 41.7385C9.59147 41.4406 9.69955 41.0944 9.71445 40.6997H12.4984C12.4835 41.5188 12.2524 42.2523 11.8052 42.9001C11.358 43.548 10.7617 44.0618 10.0163 44.4415C9.27842 44.8138 8.45107 45 7.53428 45C6.60258 45 5.79014 44.8436 5.09696 44.5309C4.40378 44.2181 3.82613 43.7825 3.364 43.224C2.90934 42.6656 2.56647 42.0177 2.33541 41.2806C2.1118 40.5434 2 39.7541 2 38.9126V38.5552C2 37.7138 2.1118 36.9244 2.33541 36.1873C2.56647 35.4501 2.90934 34.8022 3.364 34.2438C3.82613 33.6853 4.40378 33.2497 5.09696 32.9369C5.79014 32.6242 6.59886 32.4678 7.5231 32.4678C8.49952 32.4678 9.35668 32.6577 10.0946 33.0375C10.8399 33.4172 11.4213 33.9534 11.8387 34.6459C12.2636 35.3384 12.4835 36.1537 12.4984 37.092H9.71445C9.69955 36.6601 9.60265 36.2729 9.42376 35.9304C9.24488 35.5878 8.99146 35.3123 8.6635 35.1038C8.33554 34.8953 7.93677 34.7911 7.4672 34.7911C6.96781 34.7911 6.55041 34.8953 6.215 35.1038C5.88704 35.3123 5.62989 35.599 5.44355 35.9639C5.26467 36.3213 5.13796 36.7234 5.06342 37.1702C4.99634 37.6095 4.9628 38.0712 4.9628 38.5552V38.9126C4.9628 39.4041 4.99634 39.8732 5.06342 40.32C5.13796 40.7668 5.26467 41.1689 5.44355 41.5263C5.62989 41.8763 5.88704 42.1555 6.215 42.364C6.55041 42.5725 6.97526 42.6767 7.48956 42.6767Z" fill="#FF8753"/>
<path d="M23.956 41.906V32.6912H26.93V44.7766H24.1349L23.956 41.906ZM24.3361 39.4041L25.2529 39.3817C25.2529 40.1934 25.1635 40.9417 24.9846 41.6268C24.8057 42.3119 24.5262 42.9076 24.1461 43.4139C23.7734 43.9128 23.3001 44.3038 22.7262 44.5867C22.1522 44.8622 21.474 45 20.6913 45C20.095 45 19.5509 44.9181 19.059 44.7543C18.5671 44.583 18.1422 44.3187 17.7844 43.9612C17.4341 43.5964 17.1621 43.131 16.9683 42.565C16.7745 41.9917 16.6776 41.3029 16.6776 40.4987V32.6912H19.6292V40.521C19.6292 40.9231 19.6739 41.2582 19.7634 41.5263C19.8603 41.7943 19.9907 42.014 20.1547 42.1853C20.3261 42.3491 20.5236 42.4682 20.7472 42.5427C20.9783 42.6097 21.2243 42.6432 21.4851 42.6432C22.2007 42.6432 22.7634 42.5018 23.1734 42.2188C23.5908 41.9284 23.8889 41.5412 24.0678 41.0572C24.2467 40.5657 24.3361 40.0147 24.3361 39.4041Z" fill="#FF8753"/>
<path d="M34.7875 35.1597V44.7766H31.8359V32.6912H34.631L34.7875 35.1597ZM38.4659 32.613L38.4212 35.3607C38.2572 35.3309 38.0708 35.3086 37.8621 35.2937C37.6609 35.2788 37.4708 35.2714 37.2919 35.2714C36.8373 35.2714 36.4385 35.3346 36.0956 35.4612C35.7528 35.5804 35.4658 35.7554 35.2348 35.9862C35.0111 36.217 34.8397 36.5 34.7205 36.8351C34.6012 37.1627 34.5341 37.535 34.5192 37.952L33.8819 37.8739C33.8819 37.1069 33.9602 36.3958 34.1167 35.7405C34.2732 35.0852 34.5006 34.5118 34.7987 34.0204C35.0969 33.5289 35.4695 33.1491 35.9168 32.8811C36.3714 32.6056 36.8932 32.4678 37.482 32.4678C37.646 32.4678 37.8211 32.4827 38.0075 32.5125C38.2013 32.5348 38.3541 32.5683 38.4659 32.613Z" fill="#FF8753"/>
<path d="M45.3284 35.1597V44.7766H42.3768V32.6912H45.1719L45.3284 35.1597ZM49.0067 32.613L48.962 35.3607C48.798 35.3309 48.6117 35.3086 48.403 35.2937C48.2017 35.2788 48.0117 35.2714 47.8328 35.2714C47.3781 35.2714 46.9794 35.3346 46.6365 35.4612C46.2936 35.5804 46.0067 35.7554 45.7756 35.9862C45.552 36.217 45.3806 36.5 45.2613 36.8351C45.1421 37.1627 45.075 37.535 45.0601 37.952L44.4228 37.8739C44.4228 37.1069 44.501 36.3958 44.6576 35.7405C44.8141 35.0852 45.0414 34.5118 45.3396 34.0204C45.6377 33.5289 46.0104 33.1491 46.4576 32.8811C46.9123 32.6056 47.434 32.4678 48.0229 32.4678C48.1868 32.4678 48.362 32.4827 48.5483 32.5125C48.7421 32.5348 48.8949 32.5683 49.0067 32.613Z" fill="#FF8753"/>
<path d="M58.1277 45C57.2109 45 56.3873 44.8511 55.6568 44.5532C54.9264 44.2554 54.304 43.8421 53.7897 43.3134C53.2828 42.7773 52.8915 42.1555 52.6158 41.4481C52.3474 40.7332 52.2133 39.9663 52.2133 39.1472V38.7004C52.2133 37.7696 52.3474 36.9244 52.6158 36.1649C52.8841 35.3979 53.2642 34.7389 53.7561 34.1879C54.2481 33.6369 54.8369 33.2124 55.5226 32.9146C56.2084 32.6167 56.9649 32.4678 57.7923 32.4678C58.6494 32.4678 59.406 32.613 60.0619 32.9034C60.7178 33.1864 61.2656 33.5885 61.7054 34.1097C62.1451 34.631 62.4768 35.2565 62.7004 35.9862C62.924 36.7085 63.0359 37.509 63.0359 38.3876V39.6275H53.5549V37.5946H60.129V37.3712C60.114 36.9021 60.0246 36.4739 59.8606 36.0867C59.6966 35.6921 59.4432 35.3793 59.1004 35.1485C58.7575 34.9102 58.314 34.7911 57.7699 34.7911C57.3301 34.7911 56.9463 34.8879 56.6183 35.0815C56.2978 35.2676 56.0295 35.5357 55.8133 35.8857C55.6046 36.2282 55.4481 36.6378 55.3438 37.1143C55.2394 37.5909 55.1872 38.1196 55.1872 38.7004V39.1472C55.1872 39.6535 55.2543 40.1226 55.3885 40.5545C55.5301 40.9864 55.7351 41.3625 56.0034 41.6827C56.2792 41.9954 56.6071 42.2411 56.9873 42.4198C57.3749 42.5911 57.8146 42.6767 58.3066 42.6767C58.9252 42.6767 59.4842 42.5576 59.9836 42.3193C60.4905 42.0736 60.9302 41.7124 61.3029 41.2359L62.7899 42.7773C62.5365 43.1496 62.1936 43.507 61.7613 43.8495C61.3364 44.1921 60.8221 44.4713 60.2184 44.6873C59.6147 44.8958 58.9177 45 58.1277 45Z" fill="#FF8753"/>
<path d="M70.2002 35.2714V44.7766H67.2486V32.6912H70.0213L70.2002 35.2714ZM69.7307 38.2983H68.8586C68.866 37.4196 68.9853 36.6229 69.2164 35.908C69.4474 35.1932 69.7717 34.5788 70.1891 34.065C70.6139 33.5512 71.117 33.1566 71.6984 32.8811C72.2798 32.6056 72.9282 32.4678 73.6438 32.4678C74.2252 32.4678 74.7506 32.5497 75.2202 32.7135C75.6898 32.8774 76.0923 33.138 76.4277 33.4954C76.7706 33.8528 77.0314 34.3219 77.2103 34.9028C77.3967 35.4761 77.4898 36.1835 77.4898 37.025V44.7766H74.5159V37.0026C74.5159 36.4516 74.4339 36.016 74.2699 35.6958C74.1134 35.3756 73.8823 35.1485 73.5767 35.0145C73.2786 34.8804 72.9096 34.8134 72.4698 34.8134C72.0152 34.8134 71.6164 34.9065 71.2735 35.0926C70.9381 35.2714 70.6549 35.5208 70.4238 35.841C70.2002 36.1612 70.0288 36.5298 69.9095 36.9468C69.7903 37.3638 69.7307 37.8143 69.7307 38.2983Z" fill="#FF8753"/>
<path d="M87.3487 42.6767C87.7661 42.6767 88.1388 42.5948 88.4667 42.431C88.7947 42.2672 89.0555 42.0364 89.2493 41.7385C89.4506 41.4406 89.5587 41.0944 89.5736 40.6997H92.3575C92.3426 41.5188 92.1115 42.2523 91.6643 42.9001C91.2171 43.548 90.6208 44.0618 89.8754 44.4415C89.1375 44.8138 88.3102 45 87.3934 45C86.4617 45 85.6493 44.8436 84.9561 44.5309C84.2629 44.2181 83.6852 43.7825 83.2231 43.224C82.7685 42.6656 82.4256 42.0177 82.1945 41.2806C81.9709 40.5434 81.8591 39.7541 81.8591 38.9126V38.5552C81.8591 37.7138 81.9709 36.9244 82.1945 36.1873C82.4256 35.4501 82.7685 34.8022 83.2231 34.2438C83.6852 33.6853 84.2629 33.2497 84.9561 32.9369C85.6493 32.6242 86.458 32.4678 87.3822 32.4678C88.3586 32.4678 89.2158 32.6577 89.9537 33.0375C90.6991 33.4172 91.2804 33.9534 91.6978 34.6459C92.1227 35.3384 92.3426 36.1537 92.3575 37.092H89.5736C89.5587 36.6601 89.4618 36.2729 89.2829 35.9304C89.104 35.5878 88.8506 35.3123 88.5226 35.1038C88.1947 34.8953 87.7959 34.7911 87.3263 34.7911C86.8269 34.7911 86.4095 34.8953 86.0741 35.1038C85.7462 35.3123 85.489 35.599 85.3027 35.9639C85.1238 36.3213 84.9971 36.7234 84.9225 37.1702C84.8555 37.6095 84.8219 38.0712 84.8219 38.5552V38.9126C84.8219 39.4041 84.8555 39.8732 84.9225 40.32C84.9971 40.7668 85.1238 41.1689 85.3027 41.5263C85.489 41.8763 85.7462 42.1555 86.0741 42.364C86.4095 42.5725 86.8344 42.6767 87.3487 42.6767Z" fill="#FF8753"/>
<path d="M99.7455 32.6912V44.7766H96.7827V32.6912H99.7455ZM96.5814 29.5302C96.5814 29.0909 96.7305 28.726 97.0286 28.4356C97.3342 28.1452 97.7442 28 98.2585 28C98.7728 28 99.179 28.1452 99.4771 28.4356C99.7827 28.726 99.9355 29.0909 99.9355 29.5302C99.9355 29.9621 99.7827 30.3233 99.4771 30.6137C99.179 30.9041 98.7728 31.0493 98.2585 31.0493C97.7442 31.0493 97.3342 30.9041 97.0286 30.6137C96.7305 30.3233 96.5814 29.9621 96.5814 29.5302Z" fill="#FF8753"/>
<path d="M110.286 45C109.37 45 108.546 44.8511 107.815 44.5532C107.085 44.2554 106.463 43.8421 105.948 43.3134C105.441 42.7773 105.05 42.1555 104.774 41.4481C104.506 40.7332 104.372 39.9663 104.372 39.1472V38.7004C104.372 37.7696 104.506 36.9244 104.774 36.1649C105.043 35.3979 105.423 34.7389 105.915 34.1879C106.407 33.6369 106.996 33.2124 107.681 32.9146C108.367 32.6167 109.124 32.4678 109.951 32.4678C110.808 32.4678 111.565 32.613 112.221 32.9034C112.876 33.1864 113.424 33.5885 113.864 34.1097C114.304 34.631 114.635 35.2565 114.859 35.9862C115.083 36.7085 115.194 37.509 115.194 38.3876V39.6275H105.714V37.5946H112.288V37.3712C112.273 36.9021 112.183 36.4739 112.019 36.0867C111.855 35.6921 111.602 35.3793 111.259 35.1485C110.916 34.9102 110.473 34.7911 109.929 34.7911C109.489 34.7911 109.105 34.8879 108.777 35.0815C108.456 35.2676 108.188 35.5357 107.972 35.8857C107.763 36.2282 107.607 36.6378 107.502 37.1143C107.398 37.5909 107.346 38.1196 107.346 38.7004V39.1472C107.346 39.6535 107.413 40.1226 107.547 40.5545C107.689 40.9864 107.894 41.3625 108.162 41.6827C108.438 41.9954 108.766 42.2411 109.146 42.4198C109.533 42.5911 109.973 42.6767 110.465 42.6767C111.084 42.6767 111.643 42.5576 112.142 42.3193C112.649 42.0736 113.089 41.7124 113.462 41.2359L114.949 42.7773C114.695 43.1496 114.352 43.507 113.92 43.8495C113.495 44.1921 112.981 44.4713 112.377 44.6873C111.773 44.8958 111.076 45 110.286 45Z" fill="#FF8753"/>
<path d="M126.115 41.4704C126.115 41.2173 126.048 40.9901 125.914 40.7891C125.78 40.588 125.527 40.4056 125.154 40.2418C124.789 40.0705 124.252 39.9104 123.544 39.7615C122.918 39.6275 122.34 39.4599 121.811 39.2589C121.282 39.0578 120.827 38.8158 120.447 38.5329C120.067 38.2424 119.769 37.9036 119.553 37.5164C119.344 37.1218 119.24 36.6675 119.24 36.1537C119.24 35.6548 119.348 35.1857 119.564 34.7464C119.78 34.2996 120.093 33.9087 120.503 33.5736C120.913 33.2311 121.412 32.963 122.001 32.7694C122.59 32.5683 123.253 32.4678 123.991 32.4678C125.02 32.4678 125.903 32.6353 126.641 32.9704C127.386 33.3055 127.957 33.7672 128.352 34.3555C128.747 34.9363 128.944 35.5915 128.944 36.3213H125.992C125.992 36.0011 125.918 35.7107 125.769 35.4501C125.627 35.1894 125.407 34.9809 125.109 34.8246C124.811 34.6608 124.435 34.5788 123.98 34.5788C123.57 34.5788 123.223 34.6459 122.94 34.7799C122.664 34.9139 122.456 35.0889 122.314 35.3049C122.173 35.5208 122.102 35.7591 122.102 36.0197C122.102 36.2133 122.139 36.3883 122.214 36.5447C122.296 36.6936 122.426 36.8314 122.605 36.958C122.784 37.0845 123.026 37.2 123.332 37.3042C123.645 37.4085 124.028 37.509 124.483 37.6058C125.385 37.7845 126.171 38.0228 126.842 38.3206C127.52 38.611 128.05 38.9982 128.43 39.4823C128.81 39.9663 129 40.5843 129 41.3364C129 41.8725 128.884 42.364 128.653 42.8108C128.422 43.2501 128.087 43.6336 127.647 43.9612C127.207 44.2889 126.682 44.5458 126.071 44.7319C125.46 44.9106 124.77 45 124.002 45C122.892 45 121.953 44.8027 121.185 44.408C120.417 44.0059 119.836 43.4996 119.441 42.889C119.046 42.2709 118.848 41.6305 118.848 40.9678H121.677C121.699 41.4369 121.826 41.813 122.057 42.0959C122.288 42.3789 122.579 42.5837 122.929 42.7102C123.287 42.8294 123.663 42.889 124.058 42.889C124.505 42.889 124.882 42.8294 125.187 42.7102C125.493 42.5837 125.724 42.4161 125.881 42.2076C126.037 41.9917 126.115 41.7459 126.115 41.4704Z" fill="#FF8753"/>
</svg>
