<svg width="131" height="45" viewBox="0 0 131 45" fill="none" xmlns="http://www.w3.org/2000/svg"><path d="M13.012 14.46h5.24c-.07 1.49-.479 2.803-1.227 3.94-.75 1.136-1.787 2.023-3.115 2.66-1.318.627-2.875.94-4.672.94-1.457 0-2.76-.24-3.908-.72a7.959 7.959 0 0 1-2.904-2.072c-.789-.902-1.393-1.994-1.812-3.277C.204 14.646 0 13.201 0 11.595v-1.16c0-1.608.215-3.053.644-4.336.44-1.293 1.058-2.39 1.857-3.292A8.05 8.05 0 0 1 5.405.72C6.533.24 7.786 0 9.164 0c1.896 0 3.498.333 4.806 1 1.308.666 2.32 1.582 3.04 2.747.718 1.157 1.142 2.474 1.272 3.954h-5.24c-.02-.804-.16-1.475-.42-2.014a2.566 2.566 0 0 0-1.227-1.234c-.56-.274-1.303-.412-2.231-.412-.65 0-1.213.118-1.692.353-.48.235-.879.608-1.198 1.117-.32.51-.56 1.17-.719 1.984-.15.803-.225 1.773-.225 2.91v1.19c0 1.137.07 2.107.21 2.91.14.803.364 1.46.674 1.97.31.509.709.886 1.198 1.13.499.236 1.108.354 1.826.354.799 0 1.473-.123 2.022-.368a2.81 2.81 0 0 0 1.273-1.146c.299-.52.459-1.18.479-1.984ZM23.613.309h8.58c1.676 0 3.134.245 4.371.734 1.238.49 2.191 1.215 2.86 2.175.68.96 1.018 2.146 1.018 3.557 0 1.225-.194 2.248-.584 3.071a5.515 5.515 0 0 1-1.632 2.043 9.22 9.22 0 0 1-2.41 1.308l-1.722.955h-7.202l-.03-3.982h5.33c.669 0 1.223-.118 1.662-.353.44-.235.769-.568.989-1 .23-.44.344-.964.344-1.572 0-.617-.115-1.146-.344-1.587a2.345 2.345 0 0 0-1.019-1.014c-.439-.235-.983-.353-1.632-.353h-3.324v17.415h-5.255V.31Zm11.933 21.397-4.821-9.464 5.57-.03 4.881 9.274v.22h-5.63ZM49.726.309l4.013 9.288L57.766.309h5.66L56.42 14.02v7.686h-5.346V14.02L44.051.309h5.675ZM76.603 14.446h-5.42v-3.982h5.42c.738 0 1.337-.123 1.796-.368.46-.245.794-.583 1.004-1.014.22-.44.329-.935.329-1.484a4.01 4.01 0 0 0-.33-1.631c-.21-.5-.543-.902-1.003-1.205-.459-.314-1.058-.47-1.796-.47h-3.444v17.414h-5.256V.31h8.7c1.746 0 3.249.313 4.507.94 1.267.627 2.24 1.49 2.92 2.587.678 1.087 1.017 2.331 1.017 3.732 0 1.382-.339 2.587-1.018 3.616-.678 1.028-1.652 1.832-2.92 2.41-1.257.568-2.76.852-4.506.852ZM101.308.309v21.397h-5.255V.31h5.255Zm6.558 0V4.29H89.644V.31h18.222ZM131 10.581v.867c0 1.636-.235 3.106-.704 4.409-.459 1.293-1.113 2.4-1.961 3.321a8.7 8.7 0 0 1-3.01 2.102c-1.158.48-2.435.72-3.833.72-1.407 0-2.695-.24-3.863-.72a8.852 8.852 0 0 1-3.025-2.102c-.848-.92-1.507-2.028-1.976-3.321-.459-1.303-.689-2.773-.689-4.409v-.867c0-1.636.23-3.106.689-4.409.469-1.303 1.123-2.41 1.961-3.321a8.445 8.445 0 0 1 3.01-2.102c1.168-.49 2.456-.734 3.863-.734 1.398 0 2.675.245 3.833.734a8.414 8.414 0 0 1 3.025 2.102c.848.911 1.507 2.018 1.976 3.321.469 1.303.704 2.773.704 4.41Zm-5.33.867v-.896c0-1.058-.095-1.99-.285-2.792-.18-.814-.449-1.495-.808-2.043-.36-.549-.804-.96-1.333-1.235-.519-.284-1.113-.426-1.782-.426-.699 0-1.308.142-1.827.426-.519.275-.953.686-1.302 1.235-.35.548-.614 1.23-.794 2.043-.17.803-.254 1.734-.254 2.792v.896c0 1.048.084 1.98.254 2.793.18.803.444 1.484.794 2.042.359.559.798.98 1.317 1.264.529.284 1.143.426 1.842.426.669 0 1.263-.142 1.782-.426.519-.284.953-.705 1.303-1.264.359-.558.628-1.24.808-2.043.19-.813.285-1.744.285-2.792Z" fill="#E1E1E1"/><path d="M7.49 42.677c.417 0 .79-.082 1.118-.246.328-.164.588-.395.782-.692.201-.298.31-.645.324-1.04h2.784a3.912 3.912 0 0 1-.693 2.201 4.745 4.745 0 0 1-1.789 1.541c-.738.373-1.565.559-2.482.559-.931 0-1.744-.156-2.437-.47a4.746 4.746 0 0 1-1.733-1.306 5.782 5.782 0 0 1-1.029-1.943A8.118 8.118 0 0 1 2 38.913v-.358c0-.841.112-1.63.335-2.368a5.781 5.781 0 0 1 1.029-1.943 4.746 4.746 0 0 1 1.733-1.307c.693-.313 1.502-.47 2.426-.47.977 0 1.834.19 2.572.57.745.38 1.326.916 1.744 1.609.425.692.644 1.508.66 2.446H9.713a2.675 2.675 0 0 0-.29-1.162 2.134 2.134 0 0 0-.76-.826c-.328-.209-.727-.313-1.197-.313-.5 0-.917.104-1.252.313a2.16 2.16 0 0 0-.771.86c-.18.357-.306.76-.38 1.206-.068.44-.101.901-.101 1.385v.358c0 .491.033.96.1 1.407.075.447.202.849.38 1.206.187.35.444.63.772.838.335.209.76.313 1.275.313ZM23.956 41.906v-9.215h2.974v12.086h-2.795l-.179-2.871Zm.38-2.502.917-.022c0 .811-.09 1.56-.268 2.245a5.077 5.077 0 0 1-.839 1.787c-.373.499-.846.89-1.42 1.173-.574.275-1.252.413-2.035.413-.596 0-1.14-.082-1.632-.246a3.324 3.324 0 0 1-1.275-.793c-.35-.365-.622-.83-.816-1.396-.194-.573-.29-1.262-.29-2.066V32.69h2.951v7.83c0 .402.045.737.134 1.005.097.268.228.488.392.66.171.163.369.282.592.357.231.067.477.1.738.1.716 0 1.278-.141 1.688-.424a2.39 2.39 0 0 0 .895-1.162 4.807 4.807 0 0 0 .268-1.653ZM34.788 35.16v9.617h-2.952V32.69h2.795l.157 2.469Zm3.678-2.547-.045 2.748a5.242 5.242 0 0 0-.559-.067 7.74 7.74 0 0 0-.57-.023c-.455 0-.854.064-1.196.19-.343.12-.63.294-.861.525-.224.231-.395.514-.514.85-.12.327-.187.699-.202 1.116l-.637-.078c0-.767.078-1.478.235-2.134a5.97 5.97 0 0 1 .682-1.72c.298-.491.67-.87 1.118-1.139.454-.275.976-.413 1.565-.413.164 0 .34.015.526.044.193.023.346.056.458.101ZM45.328 35.16v9.617h-2.951V32.69h2.795l.156 2.469Zm3.679-2.547-.045 2.748a5.24 5.24 0 0 0-.559-.067 7.741 7.741 0 0 0-.57-.023c-.455 0-.854.064-1.197.19-.342.12-.63.294-.86.525-.224.231-.395.514-.515.85-.119.327-.186.699-.2 1.116l-.638-.078c0-.767.078-1.478.235-2.134a5.966 5.966 0 0 1 .682-1.72c.298-.491.67-.87 1.118-1.139.454-.275.976-.413 1.565-.413.164 0 .339.015.525.044.194.023.347.056.459.101ZM58.128 45c-.917 0-1.74-.149-2.471-.447a5.425 5.425 0 0 1-1.867-1.24 5.697 5.697 0 0 1-1.174-1.865 6.492 6.492 0 0 1-.403-2.3V38.7c0-.93.134-1.776.403-2.535a5.81 5.81 0 0 1 1.14-1.977 5.02 5.02 0 0 1 1.767-1.273c.685-.298 1.442-.447 2.27-.447.856 0 1.613.145 2.269.435a4.39 4.39 0 0 1 1.643 1.207c.44.521.772 1.147.995 1.876.224.723.336 1.523.336 2.402v1.24h-9.481v-2.033h6.574v-.224a3.558 3.558 0 0 0-.268-1.284 2.053 2.053 0 0 0-.76-.939c-.343-.238-.787-.357-1.331-.357-.44 0-.824.097-1.152.29a2.31 2.31 0 0 0-.805.805 3.984 3.984 0 0 0-.47 1.228 7.426 7.426 0 0 0-.156 1.586v.447c0 .507.067.976.202 1.407.141.432.346.808.614 1.129.276.312.604.558.984.737.388.171.828.257 1.32.257.618 0 1.177-.12 1.677-.358a3.734 3.734 0 0 0 1.319-1.083l1.487 1.541a4.93 4.93 0 0 1-1.029 1.072c-.425.343-.939.622-1.543.838-.603.209-1.3.313-2.09.313ZM70.2 35.271v9.506H67.25V32.69h2.772l.18 2.58Zm-.47 3.027h-.871c.007-.878.126-1.675.357-2.39.231-.715.556-1.33.973-1.843a4.37 4.37 0 0 1 1.51-1.184c.58-.275 1.23-.413 1.945-.413.581 0 1.107.082 1.576.245.47.164.872.425 1.208.782.343.358.603.827.782 1.408.187.573.28 1.28.28 2.122v7.752h-2.974v-7.774c0-.551-.082-.987-.246-1.307a1.371 1.371 0 0 0-.693-.681c-.298-.135-.667-.202-1.107-.202-.455 0-.854.093-1.197.28a2.474 2.474 0 0 0-.85.748c-.223.32-.394.689-.514 1.106a4.9 4.9 0 0 0-.178 1.351ZM87.349 42.677c.417 0 .79-.082 1.118-.246.328-.164.588-.395.782-.692.202-.298.31-.645.325-1.04h2.784a3.912 3.912 0 0 1-.694 2.201 4.745 4.745 0 0 1-1.789 1.541c-.737.373-1.565.559-2.482.559-.931 0-1.744-.156-2.437-.47a4.746 4.746 0 0 1-1.733-1.306 5.783 5.783 0 0 1-1.028-1.943 8.119 8.119 0 0 1-.336-2.368v-.358c0-.841.112-1.63.336-2.368a5.783 5.783 0 0 1 1.028-1.943 4.746 4.746 0 0 1 1.733-1.307c.693-.313 1.502-.47 2.426-.47.977 0 1.834.19 2.572.57.745.38 1.326.916 1.744 1.609.425.692.645 1.508.66 2.446h-2.784a2.675 2.675 0 0 0-.291-1.162 2.134 2.134 0 0 0-.76-.826c-.328-.209-.727-.313-1.197-.313-.5 0-.916.104-1.252.313a2.16 2.16 0 0 0-.771.86 4.24 4.24 0 0 0-.38 1.206c-.067.44-.101.901-.101 1.385v.358c0 .491.034.96.1 1.407.075.447.202.849.38 1.206.187.35.444.63.772.838.335.209.76.313 1.275.313ZM99.746 32.691v12.086h-2.963V32.69h2.963Zm-3.165-3.16c0-.44.15-.805.448-1.095.305-.29.715-.436 1.23-.436.514 0 .92.145 1.218.436.306.29.459.655.459 1.094 0 .432-.153.793-.459 1.084-.298.29-.704.435-1.219.435-.514 0-.924-.145-1.23-.435a1.451 1.451 0 0 1-.447-1.084ZM110.286 45c-.916 0-1.74-.149-2.471-.447a5.435 5.435 0 0 1-1.867-1.24 5.7 5.7 0 0 1-1.174-1.865 6.501 6.501 0 0 1-.402-2.3V38.7c0-.93.134-1.776.402-2.535a5.82 5.82 0 0 1 1.141-1.977 5.024 5.024 0 0 1 1.766-1.273c.686-.298 1.443-.447 2.27-.447.857 0 1.614.145 2.27.435a4.397 4.397 0 0 1 1.643 1.207c.44.521.771 1.147.995 1.876.224.723.335 1.523.335 2.402v1.24h-9.48v-2.033h6.574v-.224a3.558 3.558 0 0 0-.269-1.284 2.052 2.052 0 0 0-.76-.939c-.343-.238-.786-.357-1.33-.357-.44 0-.824.097-1.152.29a2.304 2.304 0 0 0-.805.805 3.995 3.995 0 0 0-.47 1.228 7.454 7.454 0 0 0-.156 1.586v.447c0 .507.067.976.201 1.407.142.432.347.808.615 1.129.276.312.604.558.984.737.387.171.827.257 1.319.257.619 0 1.178-.12 1.677-.358a3.738 3.738 0 0 0 1.32-1.083l1.487 1.541c-.254.373-.597.73-1.029 1.072a5.253 5.253 0 0 1-1.543.838c-.604.209-1.301.313-2.091.313ZM126.115 41.47a1.2 1.2 0 0 0-.201-.68c-.134-.202-.387-.384-.76-.548-.365-.171-.902-.332-1.61-.48a11.884 11.884 0 0 1-1.733-.503 5.611 5.611 0 0 1-1.364-.726 3.3 3.3 0 0 1-.894-1.017c-.209-.394-.313-.849-.313-1.362 0-.5.108-.968.324-1.408.216-.446.529-.837.939-1.172.41-.343.909-.611 1.498-.805.589-.2 1.252-.301 1.99-.301 1.029 0 1.912.167 2.65.502.745.336 1.316.797 1.711 1.386.395.58.592 1.236.592 1.965h-2.952c0-.32-.074-.61-.223-.87a1.538 1.538 0 0 0-.66-.626c-.298-.164-.674-.246-1.129-.246-.41 0-.757.067-1.04.2a1.519 1.519 0 0 0-.626.526 1.28 1.28 0 0 0-.212.715c0 .193.037.368.112.525.082.149.212.286.391.413.179.127.421.242.727.346.313.104.696.205 1.151.302.902.178 1.688.417 2.359.715.678.29 1.208.677 1.588 1.161.38.484.57 1.102.57 1.854 0 .537-.116 1.028-.347 1.475-.231.44-.566.823-1.006 1.15a5.1 5.1 0 0 1-1.576.77c-.611.18-1.301.269-2.069.269-1.11 0-2.049-.197-2.817-.592-.768-.402-1.349-.908-1.744-1.519-.395-.618-.593-1.259-.593-1.921h2.829c.022.469.149.845.38 1.128.231.283.522.488.872.614.358.12.734.179 1.129.179.447 0 .824-.06 1.129-.179.306-.126.537-.294.694-.502.156-.216.234-.462.234-.738Z" fill="#FF8753"/></svg>