<svg width="138" height="27" viewBox="0 0 138 27" fill="none" xmlns="http://www.w3.org/2000/svg"><path d="M34.38 15.946c0 .24-.208.44-.456.44H25.1c.223 2.112 1.86 4.037 4.168 4.037 1.582 0 2.748-.58 3.634-1.801.128-.17.32-.279.559-.178.128.054.224.17.248.309.024.14-.016.217-.056.294-.887 1.5-2.652 2.235-4.384 2.235-2.971 0-5.08-2.568-5.08-5.32 0-2.753 2.117-5.32 5.08-5.32 2.962-.009 5.11 2.551 5.11 5.304Zm-.943-.425c-.192-2.112-1.86-4.037-4.168-4.037s-3.946 1.925-4.17 4.037h8.338Zm11.644-4.671c.255 0 .439.216.439.425 0 .248-.192.425-.44.425h-2.363v8.986a.441.441 0 0 1-.44.426.441.441 0 0 1-.439-.426V11.7h-2.276a.422.422 0 0 1-.439-.425c0-.216.192-.425.44-.425h2.275V7.563a.43.43 0 0 1 .36-.433c.295-.046.527.147.527.418v3.302h2.355Zm14.43 4.338v5.444c0 .248-.224.425-.44.425a.422.422 0 0 1-.438-.425v-5.444c0-1.833-1.07-3.665-3.187-3.665-2.715 0-3.881 2.289-3.721 4.647 0 .062.032.333.032.364v4.083a.43.43 0 0 1-.36.433c-.295.046-.527-.147-.527-.418V2.753c0-.216.192-.425.44-.425.255 0 .439.217.439.425v10.115c.758-1.314 2.116-2.204 3.69-2.204 2.587 0 4.072 2.204 4.072 4.524Zm15.812.758c0 .24-.208.44-.455.44h-8.825c.224 2.112 1.861 4.037 4.169 4.037 1.581 0 2.747-.58 3.634-1.801.127-.17.319-.279.559-.178a.415.415 0 0 1 .191.603c-.886 1.5-2.651 2.235-4.384 2.235-2.97 0-5.079-2.568-5.079-5.32 0-2.753 2.116-5.32 5.079-5.32 2.963-.009 5.103 2.551 5.111 5.304Zm-.95-.425c-.192-2.112-1.861-4.037-4.169-4.037s-3.945 1.925-4.169 4.037h8.338Zm11.779-4.277c0 .279-.16.426-.407.457-2.588.363-3.754 2.412-3.754 4.802v4.083a.43.43 0 0 1-.36.433c-.295.046-.526-.147-.526-.418v-9.318a.43.43 0 0 1 .36-.433c.295-.046.526.147.526.418v1.894c.727-1.19 2.18-2.32 3.69-2.32.215.008.47.155.47.402Zm14.486 4.702c0 .24-.207.44-.455.44h-8.824c.223 2.112 1.86 4.037 4.168 4.037 1.581 0 2.747-.58 3.634-1.801.127-.17.32-.279.559-.178a.415.415 0 0 1 .191.603c-.886 1.5-2.65 2.235-4.384 2.235-2.97 0-5.079-2.568-5.079-5.32 0-2.753 2.116-5.32 5.08-5.32 2.962-.009 5.102 2.551 5.11 5.304Zm-.95-.425c-.192-2.112-1.86-4.037-4.169-4.037-2.308 0-3.945 1.925-4.168 4.037h8.337Zm15.189-4.169v9.334c0 .248-.224.426-.439.426a.421.421 0 0 1-.439-.426v-1.77c-.727 1.407-2.021 2.412-3.666 2.412-2.619 0-4.073-2.204-4.073-4.524V11.33c0-.216.192-.425.439-.425.256 0 .44.217.44.425v5.475c0 1.833 1.07 3.666 3.186 3.666 2.971 0 3.666-2.691 3.666-5.653v-3.488c0-.247.255-.495.567-.41a.46.46 0 0 1 .319.433Zm22.312 3.805v5.475c0 .248-.223.425-.439.425a.422.422 0 0 1-.439-.425v-5.475c0-1.832-1.07-3.634-3.186-3.634-2.652 0-3.666 2.753-3.666 4.887v4.214c0 .248-.223.426-.439.426a.421.421 0 0 1-.439-.426V15.15c0-1.833-1.07-3.635-3.187-3.635-2.683 0-3.785 2.05-3.689 4.771 0 .062.032.186 0 .217v4.114a.43.43 0 0 1-.359.433c-.296.046-.528-.147-.528-.418v-9.35a.43.43 0 0 1 .36-.432c.295-.046.527.147.527.418v1.561c.759-1.314 2.116-2.172 3.689-2.172 1.797 0 3.187 1.098 3.754 2.722.726-1.593 2.148-2.722 3.977-2.722 2.579.007 4.064 2.18 4.064 4.5Z" fill="#E1E1E1" stroke="#E1E1E1"/><path fill-rule="evenodd" clip-rule="evenodd" d="m8.06 17.773 7.926-4.668L8.059 0 .132 13.105l7.927 4.668Zm8.06-2.893L8.058 26.04 0 14.88l8.058 4.677 8.062-4.677Z" fill="#E1E1E1"/></svg>