<svg width="142" height="45" viewBox="0 0 142 45" fill="none" xmlns="http://www.w3.org/2000/svg"><path d="M20.27 41.706c10.446 0 18.914-8.41 18.914-18.785S30.716 4.136 20.27 4.136c-10.446 0-18.914 8.41-18.914 18.785S9.825 41.706 20.27 41.706Z" fill="#26A17B"/><path d="M22.287 24.654v-.003c-.13.01-.806.049-2.308.049-1.2 0-2.043-.034-2.341-.049v.003c-4.619-.202-8.064-1-8.064-1.957 0-.954 3.448-1.755 8.064-1.957v3.12c.3.021 1.167.072 2.362.072 1.436 0 2.153-.06 2.287-.072v-3.117c4.61.206 8.046 1.003 8.046 1.957 0 .955-3.44 1.752-8.046 1.957m0-4.237v-2.79h6.431v-4.256H11.21v4.255h6.43v2.791c-5.226.239-9.155 1.265-9.155 2.498 0 1.232 3.932 2.259 9.156 2.5v8.946h4.65v-8.946c5.217-.238 9.14-1.265 9.14-2.497 0-1.23-3.923-2.26-9.14-2.498" fill="#fff"/><path d="M55.25 14.537v4.512h4.415v3.386h-4.446v6.864c0 1.516.842 2.256 2.077 2.256.617 0 1.332-.193 1.916-.483l1.103 3.353c-1.134.45-2.076.643-3.278.676-3.472.13-5.743-1.836-5.743-5.802v-6.864h-2.986v-3.386h2.986v-4.092l3.956-.42Zm76.117 4.3.292 1.837c1.234-1.966 2.889-2.256 4.512-2.256 1.654 0 3.245.643 4.12 1.513l-1.784 3.416c-.812-.677-1.557-1.033-2.856-1.033-2.076 0-3.992 1.096-3.992 4.029v8.38H127.7V18.832l3.667.007Zm-9.703 6.092c-.258-2.063-1.882-3.095-4.153-3.095-2.141 0-3.896 1.032-4.479 3.095h8.632Zm-8.696 3.256c.258 1.966 1.979 3.386 4.771 3.386 1.459 0 3.375-.55 4.284-1.483l2.53 2.482c-1.688 1.74-4.446 2.58-6.881 2.58-5.516 0-8.797-3.386-8.797-8.478 0-4.835 3.311-8.318 8.505-8.318 5.354 0 8.699 3.29 8.082 9.83h-12.494Zm-17.46-16.022v8.831c1.43-1.836 3.18-2.386 4.999-2.386 4.543 0 6.556 3.063 6.556 7.738v8.38h-3.959V26.38c0-2.902-1.527-4.126-3.637-4.126-2.338 0-3.959 1.966-3.959 4.352v8.125H91.55V12.166l3.96-.003Zm-10.514 2.193v4.512h4.415v3.385h-4.446v6.865c0 1.516.845 2.256 2.077 2.256.617 0 1.332-.193 1.915-.483l1.104 3.352c-1.134.45-2.076.644-3.278.677-3.472.13-5.743-1.84-5.743-5.802v-6.865h-2.986v-3.385h2.986v-4.092l3.956-.42ZM74.055 24.929c-.258-2.063-1.882-3.095-4.153-3.095-2.141 0-3.896 1.032-4.48 3.095h8.633Zm-8.696 3.256c.258 1.966 1.98 3.386 4.77 3.386 1.46 0 3.376-.55 4.285-1.483l2.53 2.482c-1.688 1.74-4.446 2.58-6.881 2.58-5.52 0-8.797-3.386-8.797-8.478 0-4.835 3.311-8.318 8.502-8.318 5.354 0 8.696 3.29 8.082 9.83H65.36Z" fill="#E1E1E1"/></svg>